<svg width="480" height="280" viewBox="0 0 480 280" xmlns="http://www.w3.org/2000/svg">
  <defs>
    <linearGradient id="bg400" x1="0" x2="1">
      <stop offset="0%" stop-color="#eef2ff"/>
      <stop offset="100%" stop-color="#ddd6fe"/>
    </linearGradient>
  </defs>
  <rect width="480" height="280" fill="url(#bg400)"/>
  <rect x="44" y="40" width="392" height="200" rx="26" fill="#ffffff" stroke="#7c3aed" stroke-width="4"/>
  <path d="M160 100 C152 66 176 52 196 82 C214 52 238 66 230 100" fill="#fbcfe8"/>
  <path d="M188 92 C184 80 168 72 159 82 C150 92 154 108 168 112 C180 116 190 108 188 92" fill="#f472b6"/>
  <path d="M274 92 C270 80 254 72 245 82 C236 92 240 108 254 112 C266 116 276 108 274 92" fill="#f472b6"/>
  <text x="240" y="128" text-anchor="middle" font-family="Arial, sans-serif" font-size="24" font-weight="700" fill="#4c1d95">te amo infinitamente</text>
  <text x="240" y="164" text-anchor="middle" font-family="Arial, sans-serif" font-size="17" fill="#6d28d9">Cupón válido para una tarde eterna a tu lado</text>
  <text x="240" y="194" text-anchor="middle" font-family="Arial, sans-serif" font-size="17" fill="#6d28d9">toma captura para que sea válido</text>
</svg>
